<svg width="75" height="75" viewBox="0 0 75 75" fill="none" xmlns="http://www.w3.org/2000/svg">
<path d="M37.5 63C23.4 63 12 51.6 12 37.5C12 23.4 23.4 12 37.5 12C51.6 12 63 23.4 63 37.5C63 51.6 51.6 63 37.5 63ZM37.5 15C25.05 15 15 25.05 15 37.5C15 49.95 25.05 60 37.5 60C49.95 60 60 49.95 60 37.5C60 25.05 49.95 15 37.5 15Z" fill="#383635"/>
<path d="M37.05 52.05L34.95 49.95L47.4 37.5L34.95 25.05L37.05 22.95L51.6 37.5L37.05 52.05Z" fill="#383635"/>
<path d="M24 36H49.5V39H24V36Z" fill="#383635"/>
</svg>
