<svg width="40" height="40" viewBox="0 0 40 40" fill="none" xmlns="http://www.w3.org/2000/svg">
<path d="M13.3333 20V13.3333C13.3333 11.5652 14.0356 9.86953 15.2859 8.61929C16.5361 7.36904 18.2318 6.66666 19.9999 6.66666C21.768 6.66666 23.4637 7.36904 24.714 8.61929C25.9642 9.86953 26.6666 11.5652 26.6666 13.3333V20" stroke="black" stroke-width="1.5" stroke-linecap="round"/>
<path d="M6.15662 21.1133C6.39828 18.2117 6.51995 16.7617 7.47662 15.88C8.43328 14.9983 9.88995 15 12.8016 15H27.1999C30.1099 15 31.5666 15 32.5233 15.88C33.4799 16.76 33.6016 18.2117 33.8433 21.1133L34.6999 31.39C34.8399 33.0783 34.9099 33.9233 34.4166 34.4617C33.9199 35 33.0733 35 31.3766 35H8.62328C6.92828 35 6.07995 35 5.58495 34.4617C5.08995 33.9233 5.15995 33.0783 5.30162 31.39L6.15662 21.1133Z" stroke="black" stroke-width="1.5"/>
</svg>
