<svg width="30" height="29" viewBox="0 0 30 29" fill="none" xmlns="http://www.w3.org/2000/svg">
<path d="M28.75 14.4993H10.2175M3.676 14.4993H1M3.676 14.4993C3.676 13.6321 4.02052 12.8004 4.63376 12.1871C5.247 11.5739 6.07874 11.2293 6.946 11.2293C7.81326 11.2293 8.645 11.5739 9.25824 12.1871C9.87148 12.8004 10.216 13.6321 10.216 14.4993C10.216 15.3666 9.87148 16.1983 9.25824 16.8116C8.645 17.4248 7.81326 17.7693 6.946 17.7693C6.07874 17.7693 5.247 17.4248 4.63376 16.8116C4.02052 16.1983 3.676 15.3666 3.676 14.4993ZM28.75 24.4098H20.128M20.128 24.4098C20.128 25.2773 19.7827 26.11 19.1693 26.7234C18.5559 27.3368 17.724 27.6813 16.8565 27.6813C15.9892 27.6813 15.1575 27.3353 14.5443 26.7221C13.931 26.1088 13.5865 25.2771 13.5865 24.4098M20.128 24.4098C20.128 23.5424 19.7827 22.7112 19.1693 22.0978C18.5559 21.4844 17.724 21.1398 16.8565 21.1398C15.9892 21.1398 15.1575 21.4844 14.5443 22.0976C13.931 22.7109 13.5865 23.5426 13.5865 24.4098M13.5865 24.4098H1M28.75 4.58885H24.0925M17.551 4.58885H1M17.551 4.58885C17.551 3.72159 17.8955 2.88985 18.5088 2.27661C19.122 1.66336 19.9537 1.31885 20.821 1.31885C21.2504 1.31885 21.6756 1.40343 22.0724 1.56776C22.4691 1.73209 22.8296 1.97296 23.1332 2.27661C23.4369 2.58026 23.6778 2.94074 23.8421 3.33747C24.0064 3.73421 24.091 4.15943 24.091 4.58885C24.091 5.01827 24.0064 5.44349 23.8421 5.84022C23.6778 6.23696 23.4369 6.59744 23.1332 6.90109C22.8296 7.20473 22.4691 7.4456 22.0724 7.60993C21.6756 7.77427 21.2504 7.85885 20.821 7.85885C19.9537 7.85885 19.122 7.51433 18.5088 6.90109C17.8955 6.28784 17.551 5.45611 17.551 4.58885Z" stroke="black" stroke-width="1.5" stroke-miterlimit="10" stroke-linecap="round"/>
</svg>
