<svg width="40" height="40" viewBox="0 0 40 40" fill="none" xmlns="http://www.w3.org/2000/svg">
<path d="M20 33.405C19.7834 33.4063 19.5688 33.3646 19.3685 33.2822C19.1682 33.1998 18.9863 33.0784 18.8334 32.925L7.71669 21.8C6.71757 20.7984 5.97147 19.5731 5.54019 18.2257C5.10892 16.8783 5.00488 15.4475 5.23669 14.0519C5.46851 12.6563 6.02951 11.336 6.87322 10.2004C7.71693 9.06476 8.81908 8.1465 10.0884 7.52167C11.6894 6.72182 13.4966 6.43016 15.268 6.68572C17.0393 6.94129 18.6904 7.73188 20 8.95166C21.3097 7.73188 22.9607 6.94129 24.7321 6.68572C26.5035 6.43016 28.3106 6.72182 29.9117 7.52167C31.181 8.1465 32.2831 9.06476 33.1268 10.2004C33.9705 11.336 34.5315 12.6563 34.7634 14.0519C34.9952 15.4475 34.8911 16.8783 34.4599 18.2257C34.0286 19.5731 33.2825 20.7984 32.2834 21.8L21.1567 32.925C21.0049 33.0772 20.8247 33.1979 20.6262 33.2803C20.4277 33.3626 20.2149 33.405 20 33.405ZM13.925 8.27166C12.857 8.26476 11.803 8.51455 10.8517 9C9.80564 9.51886 8.8986 10.28 8.20605 11.2201C7.5135 12.1602 7.05546 13.2521 6.87003 14.405C6.69708 15.5274 6.79022 16.6747 7.14196 17.7546C7.4937 18.8344 8.09418 19.8165 8.89502 20.6217L20.02 31.7467L31.105 20.6217C31.9059 19.8165 32.5064 18.8344 32.8581 17.7546C33.2098 16.6747 33.303 15.5274 33.13 14.405C32.9446 13.2521 32.4865 12.1602 31.794 11.2201C31.1014 10.28 30.1944 9.51886 29.1484 9C27.7921 8.34529 26.2654 8.13021 24.7811 8.38476C23.2968 8.63932 21.9289 9.35081 20.8684 10.42C20.6365 10.6474 20.3248 10.7748 20 10.7748C19.6753 10.7748 19.3635 10.6474 19.1317 10.42C17.7441 9.05013 15.8748 8.27883 13.925 8.27166Z" fill="black"/>
</svg>
