<svg width="40" height="40" viewBox="0 0 40 40" fill="none" xmlns="http://www.w3.org/2000/svg">
<path d="M35.8109 33.2813C33.3406 29.0125 29.4625 26.0172 24.9562 24.7469C27.1471 23.6332 28.899 21.8141 29.9295 19.583C30.9601 17.3518 31.2091 14.8386 30.6365 12.4485C30.0639 10.0585 28.7031 7.93096 26.7734 6.40898C24.8437 4.887 22.4576 4.05927 20 4.05927C17.5423 4.05927 15.1563 4.887 13.2266 6.40898C11.2969 7.93096 9.93607 10.0585 9.36348 12.4485C8.79089 14.8386 9.03993 17.3518 10.0704 19.583C11.101 21.8141 12.8529 23.6332 15.0437 24.7469C10.5375 26.0156 6.65937 29.0109 4.18905 33.2813C4.12122 33.388 4.07568 33.5073 4.05515 33.632C4.03463 33.7568 4.03956 33.8844 4.06964 34.0072C4.09972 34.1301 4.15434 34.2455 4.2302 34.3467C4.30605 34.4478 4.40159 34.5326 4.51106 34.5959C4.62053 34.6591 4.74166 34.6996 4.86718 34.7149C4.99269 34.7301 5.12 34.7198 5.24143 34.6846C5.36286 34.6494 5.47592 34.5899 5.57379 34.5099C5.67166 34.4298 5.75232 34.3308 5.81093 34.2188C8.81249 29.0328 14.1156 25.9375 20 25.9375C25.8844 25.9375 31.1875 29.0328 34.1891 34.2188C34.2477 34.3308 34.3283 34.4298 34.4262 34.5099C34.5241 34.5899 34.6371 34.6494 34.7585 34.6846C34.88 34.7198 35.0073 34.7301 35.1328 34.7149C35.2583 34.6996 35.3795 34.6591 35.4889 34.5959C35.5984 34.5326 35.6939 34.4478 35.7698 34.3467C35.8456 34.2455 35.9003 34.1301 35.9303 34.0072C35.9604 33.8844 35.9653 33.7568 35.9448 33.632C35.9243 33.5073 35.8788 33.388 35.8109 33.2813ZM10.9375 15C10.9375 13.2076 11.469 11.4555 12.4648 9.96515C13.4606 8.47483 14.876 7.31326 16.5319 6.62734C18.1879 5.94142 20.01 5.76196 21.768 6.11163C23.5259 6.46131 25.1407 7.32443 26.4081 8.59185C27.6756 9.85926 28.5387 11.474 28.8884 13.232C29.238 14.9899 29.0586 16.8121 28.3726 18.4681C27.6867 20.124 26.5252 21.5394 25.0348 22.5352C23.5445 23.531 21.7924 24.0625 20 24.0625C17.5974 24.0596 15.294 23.1039 13.595 21.405C11.8961 19.706 10.9404 17.4026 10.9375 15Z" fill="black"/>
</svg>
