<svg width="60" height="60" viewBox="0 0 60 60" fill="none" xmlns="http://www.w3.org/2000/svg">
<path d="M36.8225 7.5H23.1775C10.4775 7.5 7.5 10.475 7.5 23.1775V36.9675C7.5 49.525 10.475 52.5 23.1775 52.5H36.9675C49.525 52.5 52.5 49.525 52.5 36.8225V23.1775C52.5 10.4775 49.525 7.5 36.8225 7.5ZM43.79 39.58H40.525C39.29 39.58 38.855 38.565 36.605 36.315C34.645 34.355 33.775 34.1375 33.34 34.1375C32.7575 34.1375 32.54 34.21 32.54 35.1525V38.1275C32.54 38.9275 32.3225 39.3625 30.2175 39.3625C26.735 39.3625 22.96 37.1875 20.2025 33.3375C16.1375 27.605 15.12 23.3225 15.12 22.38C15.12 21.87 15.195 21.435 16.1375 21.435H19.4C20.2 21.435 20.5625 21.725 20.85 22.67C22.5225 27.3875 25.135 31.4525 26.295 31.4525C26.7325 31.4525 26.8775 31.2325 26.8775 30.2175V25.4275C26.8025 23.1775 25.6425 23.1025 25.6425 22.1625C25.6425 21.87 25.9325 21.3625 26.4425 21.3625H31.5225C32.2475 21.3625 32.465 21.6525 32.465 22.5975V29.0575C32.465 29.7825 32.755 30 32.9725 30C33.41 30 33.7725 29.7825 34.4975 28.985C36.82 26.2975 38.49 22.3075 38.49 22.3075C38.7075 21.7975 39.07 21.3625 39.94 21.3625H43.2075C44.2225 21.3625 44.44 21.87 44.2225 22.5975C43.7875 24.5575 39.7975 30.1475 39.7975 30.1475C39.505 30.6525 39.2875 30.9425 39.7975 31.5975C40.085 32.105 41.32 33.0475 42.0475 33.92C43.4975 35.59 44.5125 36.895 44.805 37.84C45.1675 39.0725 44.73 39.58 43.7875 39.58" fill="black"/>
</svg>
