<svg width="176" height="25" viewBox="0 0 176 25" fill="none" xmlns="http://www.w3.org/2000/svg">
<path d="M10.25 22.15C8.75 22.15 7.39 21.85 6.17 21.25C4.95 20.65 3.9 19.84 3.02 18.82C2.14 17.78 1.46 16.62 0.98 15.34C0.5 14.04 0.26 12.71 0.26 11.35C0.26 9.93 0.51 8.58 1.01 7.3C1.51 6 2.21 4.85 3.11 3.85C4.03 2.83 5.1 2.03 6.32 1.45C7.54 0.849999 8.86 0.549999 10.28 0.549999C11.78 0.549999 13.14 0.859999 14.36 1.48C15.58 2.1 16.62 2.93 17.48 3.97C18.36 5.01 19.04 6.17 19.52 7.45C20 8.73 20.24 10.04 20.24 11.38C20.24 12.8 19.99 14.16 19.49 15.46C18.99 16.74 18.29 17.89 17.39 18.91C16.49 19.91 15.43 20.7 14.21 21.28C12.99 21.86 11.67 22.15 10.25 22.15ZM2.36 11.35C2.36 12.51 2.55 13.63 2.93 14.71C3.31 15.77 3.85 16.72 4.55 17.56C5.25 18.38 6.08 19.04 7.04 19.54C8.02 20.02 9.09 20.26 10.25 20.26C11.47 20.26 12.56 20.01 13.52 19.51C14.5 18.99 15.33 18.31 16.01 17.47C16.71 16.61 17.24 15.65 17.6 14.59C17.96 13.53 18.14 12.45 18.14 11.35C18.14 10.19 17.95 9.08 17.57 8.02C17.19 6.96 16.64 6.01 15.92 5.17C15.22 4.33 14.39 3.67 13.43 3.19C12.47 2.71 11.41 2.47 10.25 2.47C9.05 2.47 7.96 2.72 6.98 3.22C6.02 3.72 5.19 4.4 4.49 5.26C3.81 6.1 3.28 7.05 2.9 8.11C2.54 9.17 2.36 10.25 2.36 11.35ZM26.2993 4.57V22H24.1993V0.699999H25.9393L39.9193 18.46V0.729998H42.0193V22H40.0693L26.2993 4.57ZM46.5928 19.8467L46.3877 19.2754C46.3877 19.2559 46.4268 19.1729 46.5049 19.0264C46.4072 18.9482 46.3584 18.8896 46.3584 18.8506C46.3584 18.7529 46.3975 18.6211 46.4756 18.4551C46.3975 18.377 46.3584 18.2988 46.3584 18.2207L46.4463 17.9131C46.5049 17.6982 46.583 17.5615 46.6807 17.5029L46.71 17.415C46.6318 17.3564 46.5928 17.3027 46.5928 17.2539C46.5928 17.2344 46.6416 17.1367 46.7393 16.9609L46.7686 16.7559C46.7881 16.5508 46.9102 16.3896 47.1348 16.2725C47.1348 15.8232 47.2324 15.5254 47.4277 15.3789C47.6328 15.2324 47.7793 15.0762 47.8672 14.9102C47.9648 14.7441 48.1797 14.4365 48.5117 13.9873C48.6973 13.8701 48.8877 13.7627 49.083 13.665C49.1514 13.4111 49.2441 13.2646 49.3613 13.2256C49.4785 13.1768 49.6445 13.0205 49.8594 12.7568C50.084 12.4834 50.3574 12.332 50.6797 12.3027L50.8262 12.2441C50.875 12.0879 51.0117 11.9365 51.2363 11.79C51.4609 11.6338 51.6611 11.5215 51.8369 11.4531C52.0127 11.3848 52.1592 11.3066 52.2764 11.2188C52.3936 11.1211 52.54 11.0332 52.7158 10.9551L52.9502 10.8379C53.0186 10.7891 53.1113 10.7012 53.2285 10.5742L53.3457 10.5449H53.4629C53.5605 10.5449 53.6826 10.501 53.8291 10.4131C53.9854 10.3252 54.0635 10.2373 54.0635 10.1494L53.8584 10.2666H53.7559L53.2285 10.457L52.4961 10.5449C52.3789 10.4375 52.2617 10.374 52.1445 10.3545C51.7051 10.2568 51.4854 9.90039 51.4854 9.28516C51.4854 8.83594 51.5781 8.49902 51.7637 8.27441C51.959 8.04004 52.0908 7.81055 52.1592 7.58594C52.2373 7.36133 52.374 7.14648 52.5693 6.94141C52.7646 6.73633 52.8721 6.58496 52.8916 6.4873C52.8916 6.44824 52.9502 6.39941 53.0674 6.34082C53.1846 6.28223 53.2676 6.18945 53.3164 6.0625C53.375 5.93555 53.5459 5.78906 53.8291 5.62305C53.7803 5.55469 54.0293 5.33496 54.5762 4.96387C54.6152 4.9248 54.6641 4.85156 54.7227 4.74414C54.7812 4.62695 54.8203 4.56836 54.8398 4.56836C55.0254 4.56836 55.2158 4.4707 55.4111 4.27539L55.9238 3.82129C56.0996 3.65527 56.3193 3.51367 56.583 3.39648C56.7002 3.14258 56.832 3.01562 56.9785 3.01562C56.998 3.01562 57.0664 3.04492 57.1836 3.10352H57.2422C57.2617 3.10352 57.3545 3.01562 57.5205 2.83984C57.6963 2.6543 57.8525 2.52246 57.9893 2.44434C58.2139 2.52246 58.3457 2.56152 58.3848 2.56152V2.50293C58.3848 2.4834 58.3945 2.44434 58.4141 2.38574L59.0146 2.01953L59.3076 2.04883C59.5713 1.85352 59.8447 1.75586 60.1279 1.75586C60.1475 1.75586 60.2158 1.77539 60.333 1.81445C60.4502 1.70703 60.6309 1.65332 60.875 1.65332C60.9141 1.65332 60.9727 1.68262 61.0508 1.74121C61.1289 1.79004 61.1875 1.81445 61.2266 1.81445C61.2754 1.81445 61.3193 1.80469 61.3584 1.78516C61.3975 1.76563 61.4365 1.75586 61.4756 1.75586C61.6123 1.75586 61.7295 1.80469 61.8271 1.90234C61.9346 2 62.0615 2.05371 62.208 2.06348C62.3545 2.07324 62.4961 2.23926 62.6328 2.56152C62.7793 2.87402 62.8525 3.17188 62.8525 3.45508L62.8232 3.7627L62.8525 3.99707C62.7256 4.23145 62.6523 4.43652 62.6328 4.6123C62.623 4.77832 62.5449 4.96387 62.3984 5.16895L62.2812 5.56445C62.1445 5.68164 62.0566 5.7793 62.0176 5.85742L61.9883 5.88672C61.959 6.18945 61.8369 6.34082 61.6221 6.34082H61.5049C61.2607 6.34082 61.0752 6.23828 60.9482 6.0332C60.8213 5.81836 60.7578 5.63281 60.7578 5.47656C60.7578 5.27148 60.8555 5.08105 61.0508 4.90527C61.2559 4.71973 61.4658 4.62695 61.6807 4.62695L61.7393 4.59766C61.7197 4.55859 61.71 4.5 61.71 4.42188C61.71 4.34375 61.7588 4.28516 61.8564 4.24609L61.959 4.17285C61.9688 4.10449 61.9932 4.02637 62.0322 3.93848C62.0811 3.84082 62.1055 3.77246 62.1055 3.7334C62.1055 3.60645 62.042 3.4209 61.915 3.17676C61.7881 2.92285 61.6709 2.7959 61.5635 2.7959C61.5244 2.7959 61.4854 2.80566 61.4463 2.8252C61.4072 2.84473 61.3779 2.85449 61.3584 2.85449L61.1094 2.8252C60.7773 2.8252 60.3184 2.99609 59.7324 3.33789L59.5566 3.39648H59.2197C59.2002 3.39648 59.1611 3.44531 59.1025 3.54297C58.9658 3.5918 58.8389 3.7041 58.7217 3.87988C58.6143 4.05566 58.4434 4.19727 58.209 4.30469C57.9844 4.40234 57.833 4.49023 57.7549 4.56836L57.5059 4.65625C57.3887 4.69531 57.2861 4.7832 57.1982 4.91992C57.1104 5.04688 56.8955 5.24219 56.5537 5.50586C56.1338 5.92578 55.8848 6.21387 55.8066 6.37012L55.6162 6.4873L55.2354 7C54.9912 7.48828 54.752 7.7959 54.5176 7.92285C54.4785 7.92285 54.3711 8.1377 54.1953 8.56738C54.0293 8.9873 53.9072 9.2168 53.8291 9.25586C53.7607 9.29492 53.7266 9.33398 53.7266 9.37305C53.7266 9.39258 53.7363 9.43164 53.7559 9.49023C53.9414 9.43164 54.0977 9.36328 54.2246 9.28516C54.3613 9.19727 54.459 9.15332 54.5176 9.15332C54.5762 9.15332 54.6934 9.09473 54.8691 8.97754H54.957C55.0449 8.97754 55.1475 8.91895 55.2646 8.80176H55.4697C55.5283 8.7334 55.6406 8.66016 55.8066 8.58203C55.9727 8.50391 56.207 8.38184 56.5098 8.21582C56.8223 8.0498 57.1836 7.9082 57.5938 7.79102C58.0039 7.66406 58.3701 7.55664 58.6924 7.46875C59.0244 7.38086 59.2197 7.33691 59.2783 7.33691C59.8252 7.33691 60.0986 7.47363 60.0986 7.74707C60.0986 8.24512 59.8789 8.68945 59.4395 9.08008C59.0098 9.4707 58.7461 9.66602 58.6484 9.66602L58.4141 9.63672L57.3594 9.88574C57.252 9.90527 57.1641 9.94434 57.0957 10.0029L55.9531 10.6328L55.4404 11.0137L55.1768 11.0869C54.874 11.3604 54.6543 11.5068 54.5176 11.5264L54.2686 11.585C54.0928 11.9658 53.9365 12.1562 53.7998 12.1562C53.751 12.1562 53.6777 12.1172 53.5801 12.0391C53.5605 12.0586 53.541 12.0977 53.5215 12.1562C53.502 12.2148 53.4189 12.3369 53.2725 12.5225C53.1357 12.708 53.0186 12.8154 52.9209 12.8447C52.833 12.874 52.7451 12.9082 52.6572 12.9473C52.6182 13.2988 52.5254 13.4746 52.3789 13.4746L52.1152 13.4453V13.6357C52.1152 13.7334 52.0371 13.8164 51.8809 13.8848C51.7344 13.9531 51.6465 14.0117 51.6172 14.0605C51.5879 14.1094 51.5537 14.1338 51.5146 14.1338L51.3096 14.0166L51.2803 14.0752C51.3193 14.1533 51.3389 14.2168 51.3389 14.2656C51.3389 14.3047 51.3047 14.3633 51.2363 14.4414C51.168 14.5195 51.0801 14.6709 50.9727 14.8955C50.8652 14.9346 50.7969 14.9639 50.7676 14.9834C50.6895 15.1396 50.5967 15.3008 50.4893 15.4668C50.4111 15.4668 50.3379 15.5352 50.2695 15.6719C50.2012 15.8086 50.1475 15.96 50.1084 16.126C50.0693 16.2822 49.9863 16.3896 49.8594 16.4482C49.7715 16.5654 49.6787 16.7363 49.5811 16.9609C49.4932 17.1855 49.4346 17.4346 49.4053 17.708C49.376 17.9717 49.2979 18.2012 49.1709 18.3965C49.1904 18.416 49.2002 18.4355 49.2002 18.4551L49.1709 18.8506C49.1807 18.8604 49.2148 18.9678 49.2734 19.1729C49.3418 19.3779 49.4199 19.4951 49.5078 19.5244C49.6055 19.5537 49.6836 19.6172 49.7422 19.7148C49.7812 19.7148 49.8936 19.7441 50.0791 19.8027L50.2256 19.7148C50.3232 19.7148 50.4111 19.7441 50.4893 19.8027H50.5479L50.7969 19.7441L50.9434 19.8027C51.0215 19.8027 51.1191 19.7637 51.2363 19.6855C51.2363 19.666 51.251 19.6562 51.2803 19.6562L51.4854 19.7734C51.6807 19.6562 51.8223 19.5928 51.9102 19.583C52.0078 19.5732 52.0811 19.5244 52.1299 19.4365C52.1885 19.3486 52.252 19.3047 52.3203 19.3047C52.3398 19.3047 52.3984 19.334 52.4961 19.3926H52.54C52.5596 19.3926 52.6084 19.3584 52.6865 19.29C52.7646 19.2119 52.8721 19.1533 53.0088 19.1143C53.1553 19.0752 53.2676 19.0264 53.3457 18.9678C53.4238 18.9092 53.5605 18.8311 53.7559 18.7334C53.9414 18.7139 54.0928 18.6504 54.21 18.543L54.3564 18.4844C54.4443 18.4648 54.5176 18.4062 54.5762 18.3086C54.6445 18.2109 54.9033 18.0107 55.3525 17.708L55.6602 17.4736C55.9434 17.2295 56.251 17.0244 56.583 16.8584C56.9248 16.6826 57.1348 16.5068 57.2129 16.3311L57.3301 16.1553C57.7207 16.1162 57.9502 16.0039 58.0186 15.8184C58.165 15.6621 58.3262 15.5547 58.502 15.4961C58.5508 15.3301 58.5801 15.2373 58.5898 15.2178L58.8389 15.1592L58.8975 15.1006C58.9365 14.8662 59.0049 14.7344 59.1025 14.7051C59.2002 14.666 59.332 14.5732 59.498 14.4268C59.6738 14.2803 59.8398 14.1631 59.9961 14.0752L60.7139 13.3721C60.7627 13.3232 60.8555 13.25 60.9922 13.1523C61.0117 13.0742 61.0898 13.0156 61.2266 12.9766L61.3877 12.8154C61.4072 12.7764 61.4609 12.7324 61.5488 12.6836C61.6367 12.6348 61.7637 12.5078 61.9297 12.3027C62.1055 12.0879 62.3057 11.9805 62.5303 11.9805C62.5889 11.9805 62.6182 12.0098 62.6182 12.0684C62.6182 12.7227 62.5156 13.1572 62.3105 13.3721C62.1055 13.5771 61.7539 13.8848 61.2559 14.2949C61.2363 14.2949 61.1729 14.3682 61.0654 14.5146C60.958 14.6611 60.8652 14.7441 60.7871 14.7637C60.7578 14.793 60.6895 14.8809 60.582 15.0273C60.4746 15.1738 60.3818 15.2471 60.3037 15.2471C60.2158 15.2471 60.1035 15.3496 59.9668 15.5547L59.6152 15.7891L59.3369 16.0967C59.2588 16.1553 59.1855 16.1943 59.1172 16.2139C59.0488 16.2334 59 16.2871 58.9707 16.375C58.9414 16.4629 58.8682 16.5459 58.751 16.624C58.6436 16.6924 58.4678 16.8438 58.2236 17.0781L57.6084 17.6348C57.5205 17.7227 57.418 17.7959 57.3008 17.8545L56.6709 18.4844C56.5342 18.6699 56.3633 18.7627 56.1582 18.7627H55.9238C55.9043 18.7432 55.8555 18.7041 55.7773 18.6455L55.6895 18.6162C55.6016 18.6162 55.5576 18.6357 55.5576 18.6748L55.5869 19.0557C55.5283 19.0947 55.4795 19.1143 55.4404 19.1143L55.3525 19.1436C55.1963 19.417 55.0107 19.6318 54.7959 19.7881C54.5908 19.9443 54.4736 20.0371 54.4443 20.0664C54.415 20.0957 54.3564 20.1201 54.2686 20.1396C54.1904 20.1592 54.1074 20.2031 54.0195 20.2715C53.9316 20.3398 53.79 20.4131 53.5947 20.4912C53.4092 20.5596 53.2578 20.6279 53.1406 20.6963C53.0332 20.7646 52.9697 20.7988 52.9502 20.7988C52.8721 20.7988 52.7744 20.7598 52.6572 20.6816C52.5303 20.8184 52.4424 20.9551 52.3936 21.0918C52.3447 21.2188 52.2812 21.2822 52.2031 21.2822C52.1445 21.2822 51.8955 21.3604 51.4561 21.5166C51.0264 21.6631 50.7773 21.7754 50.709 21.8535L50.3428 21.7656C50.1963 21.8438 50.0449 21.8828 49.8887 21.8828L49.625 21.8242C49.4395 21.8828 49.3369 21.9121 49.3174 21.9121L48.0869 21.3408C47.9697 21.2822 47.9014 21.2334 47.8818 21.1943C47.8623 21.1553 47.833 21.1357 47.7939 21.1357C47.4717 20.9697 47.2568 20.7842 47.1494 20.5791C47.0518 20.374 46.9248 20.2178 46.7686 20.1104L46.5928 19.8467ZM63.6746 14.77V12.88H72.4346V14.77H63.6746ZM89.5009 4.69C89.2009 4.35 88.8509 4.05 88.4509 3.79C88.0509 3.51 87.6009 3.27 87.1009 3.07C86.6009 2.87 86.0609 2.71 85.4809 2.59C84.9209 2.47 84.3209 2.41 83.6809 2.41C81.8209 2.41 80.4509 2.77 79.5709 3.49C78.7109 4.19 78.2809 5.15 78.2809 6.37C78.2809 7.21 78.4809 7.87 78.8809 8.35C79.3009 8.83 79.9509 9.22 80.8309 9.52C81.7109 9.82 82.8309 10.13 84.1909 10.45C85.7109 10.77 87.0209 11.15 88.1209 11.59C89.2209 12.03 90.0709 12.63 90.6709 13.39C91.2709 14.13 91.5709 15.14 91.5709 16.42C91.5709 17.4 91.3809 18.25 91.0009 18.97C90.6209 19.69 90.0909 20.29 89.4109 20.77C88.7309 21.25 87.9209 21.61 86.9809 21.85C86.0409 22.07 85.0109 22.18 83.8909 22.18C82.7909 22.18 81.7309 22.07 80.7109 21.85C79.7109 21.61 78.7609 21.27 77.8609 20.83C76.9609 20.37 76.1209 19.79 75.3409 19.09L76.3909 17.38C76.7709 17.78 77.2209 18.16 77.7409 18.52C78.2809 18.86 78.8709 19.17 79.5109 19.45C80.1709 19.73 80.8709 19.95 81.6109 20.11C82.3709 20.25 83.1509 20.32 83.9509 20.32C85.6509 20.32 86.9709 20.01 87.9109 19.39C88.8709 18.77 89.3509 17.85 89.3509 16.63C89.3509 15.75 89.1109 15.05 88.6309 14.53C88.1509 13.99 87.4309 13.55 86.4709 13.21C85.5109 12.87 84.3309 12.54 82.9309 12.22C81.4509 11.88 80.2009 11.5 79.1809 11.08C78.1609 10.66 77.3909 10.11 76.8709 9.43C76.3709 8.73 76.1209 7.81 76.1209 6.67C76.1209 5.35 76.4409 4.24 77.0809 3.34C77.7409 2.42 78.6409 1.73 79.7809 1.27C80.9209 0.789999 82.2309 0.549999 83.7109 0.549999C84.6509 0.549999 85.5209 0.649999 86.3209 0.849999C87.1409 1.03 87.8909 1.3 88.5709 1.66C89.2709 2.02 89.9209 2.47 90.5209 3.01L89.5009 4.69ZM112.074 0.699999V22H110.004V12.04H97.3735V22H95.2735V0.699999H97.3735V10.18H110.004V0.699999H112.074ZM126.002 22.15C124.502 22.15 123.142 21.85 121.922 21.25C120.702 20.65 119.652 19.84 118.772 18.82C117.892 17.78 117.212 16.62 116.732 15.34C116.252 14.04 116.012 12.71 116.012 11.35C116.012 9.93 116.262 8.58 116.762 7.3C117.262 6 117.962 4.85 118.862 3.85C119.782 2.83 120.852 2.03 122.072 1.45C123.292 0.849999 124.612 0.549999 126.032 0.549999C127.532 0.549999 128.892 0.859999 130.112 1.48C131.332 2.1 132.372 2.93 133.232 3.97C134.112 5.01 134.792 6.17 135.272 7.45C135.752 8.73 135.992 10.04 135.992 11.38C135.992 12.8 135.742 14.16 135.242 15.46C134.742 16.74 134.042 17.89 133.142 18.91C132.242 19.91 131.182 20.7 129.962 21.28C128.742 21.86 127.422 22.15 126.002 22.15ZM118.112 11.35C118.112 12.51 118.302 13.63 118.682 14.71C119.062 15.77 119.602 16.72 120.302 17.56C121.002 18.38 121.832 19.04 122.792 19.54C123.772 20.02 124.842 20.26 126.002 20.26C127.222 20.26 128.312 20.01 129.272 19.51C130.252 18.99 131.082 18.31 131.762 17.47C132.462 16.61 132.992 15.65 133.352 14.59C133.712 13.53 133.892 12.45 133.892 11.35C133.892 10.19 133.702 9.08 133.322 8.02C132.942 6.96 132.392 6.01 131.672 5.17C130.972 4.33 130.142 3.67 129.182 3.19C128.222 2.71 127.162 2.47 126.002 2.47C124.802 2.47 123.712 2.72 122.732 3.22C121.772 3.72 120.942 4.4 120.242 5.26C119.562 6.1 119.032 7.05 118.652 8.11C118.292 9.17 118.112 10.25 118.112 11.35ZM144.239 5.31543L144.21 5.47656C144.181 5.64258 144.044 5.80859 143.8 5.97461C143.556 6.14062 143.312 6.22363 143.067 6.22363C142.452 6.22363 142.145 5.93066 142.145 5.34473C142.145 5.13965 142.301 4.89062 142.613 4.59766C142.936 4.29492 143.36 4.08496 143.888 3.96777C144.425 3.85059 144.806 3.73828 145.03 3.63086C145.265 3.51367 145.621 3.42578 146.1 3.36719C146.178 3.44531 146.256 3.48438 146.334 3.48438C146.461 3.48438 146.549 3.44043 146.598 3.35254C146.646 3.26465 146.759 3.24023 146.935 3.2793H147.008L147.784 3.07422L148.019 3.16211C148.058 3.16211 148.102 3.14258 148.15 3.10352C148.209 3.06445 148.277 3.03516 148.355 3.01562H148.59L148.868 2.95703C149.083 2.89844 149.21 2.85449 149.249 2.8252L149.498 2.85449C149.684 2.85449 149.986 2.80566 150.406 2.70801C150.836 2.61035 151.158 2.55664 151.373 2.54688C151.598 2.53711 151.759 2.52246 151.856 2.50293C151.964 2.4834 152.027 2.47363 152.047 2.47363C152.105 2.47363 152.179 2.50293 152.267 2.56152C152.354 2.62012 152.418 2.64941 152.457 2.64941C152.496 2.64941 152.77 2.59082 153.277 2.47363H153.365L154.024 2.62012C154.2 2.52246 154.317 2.47363 154.376 2.47363C154.581 2.47363 154.752 2.54199 154.889 2.67871L155.167 2.56152L155.313 2.59082C155.372 2.59082 155.46 2.58105 155.577 2.56152H155.694C155.763 2.56152 155.836 2.57129 155.914 2.59082C155.934 2.61035 155.953 2.62012 155.973 2.62012C156.07 2.62012 156.148 2.61035 156.207 2.59082H156.397L157.027 2.7373L157.291 2.70801C157.311 2.70801 157.369 2.7373 157.467 2.7959L157.628 2.7666C157.726 2.83496 157.901 2.92773 158.155 3.04492C158.204 3.02539 158.277 3.00586 158.375 2.98633H158.404C158.424 2.98633 158.521 3.04492 158.697 3.16211L159.122 3.36719L159.239 3.30859C159.513 3.44531 159.654 3.52344 159.664 3.54297L159.781 3.79199C159.898 3.85059 160.03 3.92871 160.177 4.02637C160.206 4.12402 160.265 4.23633 160.353 4.36328V4.48047C160.353 4.5 160.426 4.57324 160.572 4.7002C160.729 4.81738 160.807 4.90527 160.807 4.96387C160.807 4.9834 160.797 5.05176 160.777 5.16895V5.19824C160.777 5.21777 160.812 5.28125 160.88 5.38867C160.948 5.49609 160.982 5.62305 160.982 5.76953L160.953 5.97461L160.982 6.16504L160.836 7.14648C160.748 7.24414 160.689 7.3418 160.66 7.43945C160.631 7.52734 160.558 7.5957 160.44 7.64453C160.323 7.69336 160.226 7.7959 160.147 7.95215C160.079 8.09863 159.977 8.19629 159.84 8.24512C159.703 8.29395 159.571 8.38184 159.444 8.50879C159.327 8.62598 159.19 8.68457 159.034 8.68457L157.467 9.15332L157.291 9.09473C157.115 9.37793 156.856 9.51953 156.515 9.51953C156.427 9.51953 156.231 9.55371 155.929 9.62207L155.636 9.69531L155.401 9.66602L154.859 9.76855C154.693 9.79785 154.571 9.83691 154.493 9.88574C154.415 9.9248 154.317 9.94434 154.2 9.94434L153.805 10.1494C153.785 10.1689 153.756 10.1787 153.717 10.1787C153.639 10.1787 153.59 10.1689 153.57 10.1494L153.365 10.0908C153.287 10.1104 153.214 10.1445 153.146 10.1934C153.087 10.2422 153.028 10.2666 152.97 10.2666L152.794 10.1201L152.516 10.3545C152.398 10.374 152.242 10.418 152.047 10.4863C151.92 10.418 151.837 10.3838 151.798 10.3838L151.285 10.6035L150.992 10.5156L150.963 10.6035C150.826 10.6035 150.685 10.6523 150.538 10.75C150.401 10.8477 150.284 10.8965 150.187 10.8965C150.118 10.8965 150.045 10.8574 149.967 10.7793C149.928 10.7793 149.889 10.7598 149.85 10.7207C149.752 10.7891 149.679 10.8623 149.63 10.9404C149.581 11.0088 149.474 11.0771 149.308 11.1455L148.956 11.043C148.956 11.0723 148.863 11.126 148.678 11.2041C148.492 11.2725 148.395 11.3311 148.385 11.3799L148.238 11.585C148.17 11.751 148.116 11.8877 148.077 11.9951C148.038 12.1025 147.989 12.1904 147.931 12.2588C147.872 12.3174 147.818 12.4248 147.77 12.5811C147.721 12.7373 147.633 12.9082 147.506 13.0938L147.477 13.2695C147.418 13.3477 147.33 13.4355 147.213 13.5332L146.876 14.1631C146.778 14.3096 146.729 14.4121 146.729 14.4707C146.729 14.6172 146.861 14.7588 147.125 14.8955L148.678 16.2139L148.927 16.3604H148.956L148.897 16.624C148.976 16.6729 149.024 16.6973 149.044 16.6973C149.103 16.6973 149.132 16.6533 149.132 16.5654H149.22C149.239 16.5654 149.288 16.6094 149.366 16.6973L149.527 16.7852C149.596 16.8535 149.723 16.9658 149.908 17.1221C150.094 17.2783 150.187 17.3857 150.187 17.4443L150.157 17.5615H150.245C150.284 17.5225 150.313 17.5029 150.333 17.5029C150.372 17.5029 150.479 17.5615 150.655 17.6787L150.846 17.7666C151.236 18.0498 151.471 18.2402 151.549 18.3379C151.637 18.4355 151.759 18.5479 151.915 18.6748C152.081 18.792 152.213 18.9287 152.311 19.085L153.995 20.3447C155.401 21.3994 156.192 22.1025 156.368 22.4541C156.407 22.5127 156.5 22.5713 156.646 22.6299C156.793 22.6885 157.003 22.8496 157.276 23.1133C157.55 23.3867 157.716 23.5967 157.774 23.7432V24.2559C157.774 24.2949 157.726 24.3438 157.628 24.4023L157.438 24.5781C157.184 24.8418 156.964 24.9736 156.778 24.9736C156.319 24.9736 155.982 24.8711 155.768 24.666L155.694 24.6367H155.548C155.392 24.6367 155.304 24.5 155.284 24.2266L155.226 24.0361C154.737 23.8799 154.366 23.6309 154.112 23.2891L153.277 22.5127C153.258 22.4932 153.097 22.3076 152.794 21.9561C152.491 21.5947 152.223 21.3359 151.988 21.1797C151.764 21.0234 151.583 20.8623 151.446 20.6963C151.319 20.5303 151.144 20.374 150.919 20.2275C150.704 20.0811 150.475 19.8369 150.23 19.4951C149.986 19.1436 149.85 18.958 149.82 18.9385C149.381 18.7041 149.171 18.4453 149.19 18.1621C149.132 18.123 148.99 18.084 148.766 18.0449C148.648 17.918 148.575 17.8496 148.546 17.8398C148.517 17.8301 148.492 17.8154 148.473 17.7959L148.502 17.5615C148.209 17.4736 148.004 17.3662 147.887 17.2393C147.77 17.1025 147.613 16.9219 147.418 16.6973C147.223 16.4727 147.052 16.3018 146.905 16.1846C146.769 16.0576 146.695 15.96 146.686 15.8916C146.676 15.8232 146.583 15.7402 146.407 15.6426C146.339 15.7598 146.266 15.8525 146.188 15.9209C146.109 15.9893 146.051 16.0674 146.012 16.1553L145.953 16.2432C145.816 16.3799 145.748 16.5312 145.748 16.6973C145.602 16.8145 145.509 17.0244 145.47 17.3271L144.811 18.8213L144.693 19.3633L144.605 20.2861C144.576 20.5498 144.464 20.6816 144.269 20.6816L143.976 20.7109C143.897 20.6719 143.712 20.6377 143.419 20.6084C143.136 20.5693 142.901 20.2812 142.716 19.7441C142.696 19.6855 142.638 19.5879 142.54 19.4512C142.452 19.3145 142.408 19.1924 142.408 19.085C142.408 19.0068 142.438 18.8799 142.496 18.7041L142.555 18.3672C142.555 18.3086 142.677 18.0303 142.921 17.5322L143.697 16.0527L144.078 15.4814C144.127 15.4033 144.181 15.2568 144.239 15.042C144.298 14.8174 144.386 14.6318 144.503 14.4854C144.63 14.3389 144.693 14.2314 144.693 14.1631C144.693 14.0459 144.601 13.9287 144.415 13.8115C144.239 13.6943 144.142 13.582 144.122 13.4746L144.063 13.3281C143.546 13.0254 143.287 12.6836 143.287 12.3027C143.287 12.0977 143.546 11.8438 144.063 11.541C144.581 11.2285 144.928 11.0527 145.104 11.0137C145.289 10.9746 145.47 10.9062 145.646 10.8086L145.895 10.75L146.1 10.5742C146.217 10.5352 146.358 10.501 146.524 10.4717C146.7 10.4326 146.847 10.2324 146.964 9.87109C147.091 9.5 147.203 9.28516 147.301 9.22656C147.496 8.82617 147.628 8.52344 147.696 8.31836C147.716 8.2793 147.77 8.19141 147.857 8.05469C147.955 7.9082 148.053 7.67383 148.15 7.35156C148.248 7.01953 148.316 6.85352 148.355 6.85352C148.395 6.85352 148.473 6.83398 148.59 6.79492L148.443 6.39941C148.443 6.36035 148.482 6.30176 148.561 6.22363C148.424 6.05762 148.355 5.85742 148.355 5.62305C148.355 5.24219 148.624 5.05176 149.161 5.05176C149.259 5.05176 149.454 5.13965 149.747 5.31543C150.04 5.48145 150.196 5.60352 150.216 5.68164C150.235 5.75977 150.299 5.88672 150.406 6.0625C150.514 6.22852 150.567 6.37012 150.567 6.4873C150.567 6.86816 150.504 7.11719 150.377 7.23438C150.25 7.35156 150.118 7.61035 149.981 8.01074L149.586 9.12402L149.527 9.40234L149.454 9.51953L149.82 9.43164C149.898 9.2168 150.23 9.09473 150.816 9.06543L151.739 8.77246H152.018L152.911 8.52344C152.95 8.52344 153.092 8.50391 153.336 8.46484H153.424L153.6 8.43555C153.639 8.45508 153.678 8.49414 153.717 8.55273H153.775C153.883 8.55273 153.941 8.48926 153.951 8.3623C153.961 8.23535 154.103 8.17188 154.376 8.17188C154.415 8.17188 154.449 8.19629 154.479 8.24512C154.518 8.29395 154.557 8.31836 154.596 8.31836C154.615 8.21094 154.688 8.1377 154.815 8.09863C154.952 8.0498 155.05 8.02539 155.108 8.02539L155.343 8.05469C155.323 8.03516 155.313 8.00586 155.313 7.9668C155.313 7.87891 155.611 7.78613 156.207 7.68848C156.373 7.62988 156.505 7.55664 156.603 7.46875C156.7 7.38086 157.008 7.25391 157.525 7.08789L158.404 6.82422C158.766 6.70703 159.015 6.35547 159.151 5.76953C159.132 5.75 159.044 5.61816 158.888 5.37402C158.888 5.35449 158.814 5.34473 158.668 5.34473C158.629 5.30566 158.561 5.26172 158.463 5.21289C158.365 5.1543 158.253 5.06152 158.126 4.93457L157.95 4.99316C157.813 4.91504 157.652 4.85645 157.467 4.81738C157.291 4.76855 157.101 4.66602 156.896 4.50977C156.817 4.54883 156.769 4.56836 156.749 4.56836C156.729 4.56836 156.622 4.51953 156.427 4.42188L156.031 4.24609H155.797L155.694 4.2168C155.636 4.14844 155.587 4.11426 155.548 4.11426L155.401 4.14355C155.362 4.16309 155.313 4.17285 155.255 4.17285H155.006C154.986 4.17285 154.908 4.12402 154.771 4.02637H154.288L154.024 4.08496C153.985 4.08496 153.922 4.0459 153.834 3.96777L153.57 4.02637L153.307 3.90918L152.911 3.96777C152.833 3.90918 152.774 3.87988 152.735 3.87988L151.563 3.99707C151.524 3.99707 151.49 3.97754 151.461 3.93848C151.432 3.89941 151.383 3.87012 151.314 3.85059C151.256 3.83105 151.188 3.79199 151.109 3.7334C150.904 3.85059 150.704 3.90918 150.509 3.90918L150.055 3.85059L149.967 3.87988H149.908C149.889 3.87988 149.801 3.86035 149.645 3.82129C149.645 3.86035 149.635 3.88965 149.615 3.90918L149.396 3.85059L148.59 3.99707H148.561L148.414 3.96777C148.375 3.96777 148.316 3.98242 148.238 4.01172C148.17 4.04102 148.116 4.05566 148.077 4.05566L147.755 4.02637L147.506 4.08496L147.154 4.05566L146.847 4.27539H146.788C146.749 4.27539 146.705 4.26074 146.656 4.23145C146.607 4.19238 146.573 4.17285 146.554 4.17285L146.334 4.2168L146.158 4.17285C146.119 4.17285 146.041 4.26562 145.924 4.45117C145.924 4.4707 145.904 4.48047 145.865 4.48047H145.836L145.616 4.42188C145.577 4.42188 145.499 4.49023 145.382 4.62695C145.196 4.69531 145.016 4.76855 144.84 4.84668C144.703 5.04199 144.586 5.15918 144.488 5.19824L144.239 5.31543ZM145.206 12.2441H144.84C144.781 12.2441 144.674 12.3027 144.518 12.4199C144.371 12.5273 144.298 12.6006 144.298 12.6396C144.298 12.6787 144.41 12.791 144.635 12.9766C144.869 13.1523 145.016 13.2402 145.074 13.2402C145.25 13.2402 145.46 12.8398 145.704 12.0391L145.558 12.0977L145.382 12.0684C145.265 12.166 145.206 12.2246 145.206 12.2441ZM175.286 2.56H167.696V22H165.596V2.56H158.006V0.699999H175.286V2.56Z" fill="black"/>
</svg>
